<svg width="192" height="53" viewBox="0 0 192 53" fill="none" xmlns="http://www.w3.org/2000/svg">
<g clip-path="url(#clip0_337_28)">
<path fill-rule="evenodd" clip-rule="evenodd" d="M37.7141 0.663086L0 38.8447L21.1074 0.663086H37.7141Z" fill="url(#paint0_linear_337_28)"/>
<path fill-rule="evenodd" clip-rule="evenodd" d="M58.8215 38.8447L37.7139 0.663086L50.7678 52.4512L58.8215 38.8447Z" fill="url(#paint1_linear_337_28)"/>
<path fill-rule="evenodd" clip-rule="evenodd" d="M0 38.8447L8.0535 52.4513H50.768L0 38.8447Z" fill="url(#paint2_linear_337_28)"/>
<path fill-rule="evenodd" clip-rule="evenodd" d="M15.7028 22.9473L10.8198 41.7447L0 38.8448L15.7028 22.9473Z" fill="url(#paint3_linear_337_28)"/>
<path fill-rule="evenodd" clip-rule="evenodd" d="M29.6006 8.87731L43.3803 23.1413L37.7143 0.663086L29.6006 8.87731Z" fill="url(#paint4_linear_337_28)"/>
<path fill-rule="evenodd" clip-rule="evenodd" d="M29.2129 46.6743L48.0689 41.7446L50.7677 52.4513L29.2129 46.6743Z" fill="url(#paint5_linear_337_28)"/>
</g>
<path d="M86.744 33.6631L85.832 30.9511H79.88L78.944 33.6631H73.976L80.576 16.8631H85.112L91.856 33.6631H86.744ZM84.704 27.3271L82.832 22.1191L81.008 27.3271H84.704ZM104.356 16.8631V21.0391H99.7964V33.6631H95.1404V21.0391H90.5804V16.8631H104.356ZM111.132 29.4391H117.108V33.6631H106.428V16.8631H111.132V29.4391ZM130.314 33.6631L129.402 30.9511H123.45L122.514 33.6631H117.546L124.146 16.8631H128.682L135.426 33.6631H130.314ZM128.274 27.3271L126.402 22.1191L124.578 27.3271H128.274ZM147.55 16.8631H152.038V33.6631H148.198L141.526 24.5671V33.6631H137.038V16.8631H141.094L147.55 25.6951V16.8631ZM167.872 16.8631V21.0391H163.312V33.6631H158.656V21.0391H154.096V16.8631H167.872ZM169.944 33.6631V16.8631H174.648V33.6631H169.944ZM183.841 34.0951C179.737 34.0951 177.073 31.9111 177.073 28.2391H181.849C181.849 29.4391 182.785 30.0391 183.841 30.0391C184.801 30.0391 185.737 29.5111 185.737 28.5991C185.737 27.5431 184.417 27.2311 182.809 26.8471C180.385 26.2471 177.289 25.5031 177.289 21.6871C177.289 18.3751 179.713 16.4791 183.673 16.4791C187.705 16.4791 190.033 18.5431 190.033 21.9751H185.377C185.377 20.8951 184.585 20.3911 183.625 20.3911C182.809 20.3911 182.017 20.7511 182.017 21.5431C182.017 22.5031 183.289 22.8151 184.849 23.2231C187.345 23.8471 190.561 24.6871 190.561 28.5031C190.561 32.1751 187.753 34.0951 183.841 34.0951Z" fill="#151515"/>
<defs>
<linearGradient id="paint0_linear_337_28" x1="21.3218" y1="0.663086" x2="-0.373319" y2="38.563" gradientUnits="userSpaceOnUse">
<stop stop-color="#7D7D7D"/>
<stop offset="1" stop-color="white"/>
</linearGradient>
<linearGradient id="paint1_linear_337_28" x1="49.6471" y1="0.663087" x2="17.2719" y2="24.0003" gradientUnits="userSpaceOnUse">
<stop stop-color="#7D7D7D"/>
<stop offset="1" stop-color="white"/>
</linearGradient>
<linearGradient id="paint2_linear_337_28" x1="28.7018" y1="38.8447" x2="26.0454" y2="56.374" gradientUnits="userSpaceOnUse">
<stop stop-color="#7D7D7D"/>
<stop offset="1" stop-color="white"/>
</linearGradient>
<linearGradient id="paint3_linear_337_28" x1="10.6609" y1="41.7314" x2="18.4597" y2="24.0046" gradientUnits="userSpaceOnUse">
<stop stop-color="#7D7D7D"/>
<stop offset="1" stop-color="white"/>
</linearGradient>
<linearGradient id="paint4_linear_337_28" x1="43.5199" y1="23.1176" x2="36.6024" y2="5.92968" gradientUnits="userSpaceOnUse">
<stop stop-color="#7D7D7D"/>
<stop offset="1" stop-color="white"/>
</linearGradient>
<linearGradient id="paint5_linear_337_28" x1="40.0146" y1="43.9472" x2="51.3552" y2="44.7408" gradientUnits="userSpaceOnUse">
<stop stop-color="#7D7D7D"/>
<stop offset="1" stop-color="white"/>
</linearGradient>
<clipPath id="clip0_337_28">
<rect width="59" height="52" fill="white" transform="translate(0 0.663086)"/>
</clipPath>
</defs>
</svg>
