<svg width="24" height="24" viewBox="0 0 24 24" fill="none" xmlns="http://www.w3.org/2000/svg">
<path d="M12 0C18.627 0 23.9998 5.3737 24 11.9971C24 18.6256 18.6272 24 12 24C9.75309 24 7.64909 23.3824 5.85156 22.3057L0.415039 23.8125L1.96094 18.5771C0.72151 16.6905 9.11806e-05 14.4279 0 12.0029C0 5.37441 5.37284 4.83334e-08 12 0ZM7.19043 6.03125C6.77075 6.09051 6.46408 6.37134 6.27148 6.6084C6.03939 6.88994 5.76279 7.31008 5.58008 7.86328C5.56526 7.91267 5.55095 7.95745 5.53613 8.00684C5.33372 8.70817 5.37328 9.45894 5.61523 10.1504C5.84239 10.7974 6.17317 11.5679 6.67188 12.3828C7.51626 13.7706 8.43443 14.6302 9.05664 15.1982C9.75788 15.8453 10.6271 16.6409 12.0049 17.3027C13.2789 17.9152 14.4347 18.1425 15.21 18.2363C15.526 18.266 16.1088 18.2704 16.7754 18.0186C17.0816 17.9 17.3385 17.7566 17.5459 17.6035C18.094 17.2133 18.4794 16.6257 18.5781 15.9639V15.9492C18.6127 15.6973 18.6076 15.4796 18.5928 15.2969C18.5779 15.1389 18.484 15.0007 18.3408 14.9365C17.373 14.492 16.4004 14.047 15.4326 13.6025C15.324 13.5532 15.1904 13.5781 15.1113 13.6719L13.7979 15.1533C13.6942 15.2718 13.5309 15.3121 13.3877 15.2529C12.7062 14.9714 11.7878 14.4965 10.8594 13.6963C9.74835 12.743 9.09588 11.7205 8.73047 11.0537C8.91316 10.9302 9.41249 10.5604 9.63477 9.87402C9.63477 9.86908 9.63965 9.86328 9.63965 9.86328C9.77775 9.43863 9.74776 8.97926 9.59473 8.55957C9.33298 7.86309 8.80989 6.5152 8.60742 6.30762C8.57285 6.27304 8.5332 6.23828 8.5332 6.23828C8.38508 6.105 8.19264 6.03039 7.99023 6.02051C7.9211 6.01557 7.84659 6.01562 7.76758 6.01562C7.54067 6.0107 7.33847 6.01153 7.19043 6.03125Z" fill="white"/>
</svg>
